HIERARCHY
ROOT joint_Root
{
	OFFSET 0.0 0.0 0.0
	CHANNELS 6 Xposition Yposition Zposition Zrotation Xrotation Yrotation 
	JOINT Hips
	{
		OFFSET -0.726466 93.3139 -2.00062
		CHANNELS 6 Xposition Yposition Zposition Zrotation Xrotation Yrotation 
		JOINT Spine
		{
			OFFSET 15.7357 0.0 0.0
			CHANNELS 6 Xposition Yposition Zposition Zrotation Xrotation Yrotation 
			JOINT Chest
			{
				OFFSET 8.98455 -0.406207 0.0
				CHANNELS 6 Xposition Yposition Zposition Zrotation Xrotation Yrotation 
				JOINT Neck
				{
					OFFSET 16.3773 0.0 0.0
					CHANNELS 6 Xposition Yposition Zposition Zrotation Xrotation Yrotation 
					JOINT Head
					{
						OFFSET 6.45672 0.0 0.0
						CHANNELS 6 Xposition Yposition Zposition Zrotation Xrotation Yrotation 
						End Site
						{
							OFFSET 0.0 0.0 0.0
						}
					}
				}
				JOINT Shoulder_L
				{
					OFFSET 12.9942 -0.242716 4.98039
					CHANNELS 6 Xposition Yposition Zposition Zrotation Xrotation Yrotation 
					JOINT UpperArm_L
					{
						OFFSET 5.34809 0.0 0.0
						CHANNELS 6 Xposition Yposition Zposition Zrotation Xrotation Yrotation 
						JOINT LowerArm_L
						{
							OFFSET 24.3286 1.87007e-05 0.0
							CHANNELS 6 Xposition Yposition Zposition Zrotation Xrotation Yrotation 
							JOINT Hand_L
							{
								OFFSET 22.2916 0.0 0.0
								CHANNELS 6 Xposition Yposition Zposition Zrotation Xrotation Yrotation 
								End Site
								{
									OFFSET 0.0 0.0 0.0
								}
							}
						}
					}
				}
				JOINT Shoulder_R
				{
					OFFSET 12.9945 -0.242716 -4.98039
					CHANNELS 6 Xposition Yposition Zposition Zrotation Xrotation Yrotation 
					JOINT UpperArm_R
					{
						OFFSET -5.34813 0.0 0.0
						CHANNELS 6 Xposition Yposition Zposition Zrotation Xrotation Yrotation 
						JOINT LowerArm_R
						{
							OFFSET -24.3289 0.000322201 0.0
							CHANNELS 6 Xposition Yposition Zposition Zrotation Xrotation Yrotation 
							JOINT Hand_R
							{
								OFFSET -22.2915 -0.000108084 0.0
								CHANNELS 6 Xposition Yposition Zposition Zrotation Xrotation Yrotation 
								End Site
								{
									OFFSET 0.0 0.0 0.0
								}
							}
						}
					}
				}
			}
		}
		JOINT UpperLeg_L
		{
			OFFSET -2.19248 -6.46944 0.0
			CHANNELS 6 Xposition Yposition Zposition Zrotation Xrotation Yrotation 
			JOINT LowerLeg_L
			{
				OFFSET 39.0811 0.0 -1.23785e-05
				CHANNELS 6 Xposition Yposition Zposition Zrotation Xrotation Yrotation 
				JOINT Foot_L
				{
					OFFSET 40.9854 0.0 -1.26872e-05
					CHANNELS 6 Xposition Yposition Zposition Zrotation Xrotation Yrotation 
					JOINT Toes_L
					{
						OFFSET 11.7543 0.0 0.0
						CHANNELS 6 Xposition Yposition Zposition Zrotation Xrotation Yrotation 
						End Site
						{
							OFFSET 0.0 0.0 0.0
						}
					}
				}
			}
		}
		JOINT UpperLeg_R
		{
			OFFSET -2.19251 6.46944 0.0
			CHANNELS 6 Xposition Yposition Zposition Zrotation Xrotation Yrotation 
			JOINT LowerLeg_R
			{
				OFFSET -39.0811 -0.00228153 -0.0401928
				CHANNELS 6 Xposition Yposition Zposition Zrotation Xrotation Yrotation 
				JOINT Foot_R
				{
					OFFSET -40.9854 0.0 0.0
					CHANNELS 6 Xposition Yposition Zposition Zrotation Xrotation Yrotation 
					JOINT Toes_R
					{
						OFFSET -11.7543 0.0 0.0
						CHANNELS 6 Xposition Yposition Zposition Zrotation Xrotation Yrotation 
						End Site
						{
							OFFSET 0.0 0.0 0.0
						}
					}
				}
			}
		}
	}
}
MOTION
Frames:	4
Frame Time:	0.0333333
0.000000 0.000000 0.000000 0.000000 0.000000 -0.000000 -1.279500 92.203400 -2.411170 87.485300 -0.224691 1.970580 15.735700 0.000005 -0.000001 86.184000 85.316500 -86.086200 8.984550 -0.406207 -0.000000 1.580930 -0.628339 0.204133 16.377300 -0.000001 -0.000001 1.194490 -1.439890 -0.598472 6.456720 -0.000001 -0.000000 -0.618357 -0.955772 5.806910 12.994200 -0.242716 4.980390 -89.378500 -1.958310 -72.387500 5.348090 -0.000007 -0.000001 -69.095400 30.437900 -16.547000 24.328600 0.000019 0.000005 2.461640 6.357620 -21.217200 22.291600 -0.000001 0.000005 11.650100 5.547130 -8.567350 12.994500 -0.242716 -4.980390 87.874500 6.525360 -71.913900 -5.348130 -0.000001 -0.000004 -65.108300 33.006900 -15.510500 -24.328900 0.000322 -0.000009 1.341010 4.032890 -18.423500 -22.291500 -0.000108 -0.000004 19.002000 5.497360 -6.426530 -2.192480 -6.469440 -0.000000 -168.414000 -16.184700 -4.509020 39.081100 -0.000007 -0.000012 -0.171070 0.461732 20.329700 40.985400 -0.000006 -0.000013 -6.737470 3.087030 -61.778400 11.754300 -0.000000 0.000003 -0.000149 -0.001445 -16.632500 -2.192510 6.469440 -0.000001 175.106000 22.001400 177.735000 -39.081100 -0.002282 -0.040193 -0.038656 0.126737 18.326800 -40.985400 0.000008 0.000006 -3.249970 4.247780 -62.002800 -11.754300 -0.000006 -0.000006 -0.005168 -0.063082 -19.139900
0.000000 0.000000 0.000000 0.000000 0.000000 -0.000000 -1.282270 92.227400 -2.490610 87.474200 -0.246221 1.925880 15.735700 0.000005 -0.000001 86.080900 85.360300 -85.980200 8.984550 -0.406207 -0.000000 1.492240 -0.639403 0.209693 16.377300 -0.000001 -0.000001 0.697270 -1.423580 -0.632455 6.456720 -0.000001 -0.000000 -0.989539 -0.944001 5.849660 12.994200 -0.242716 4.980390 -89.376500 -1.955030 -72.308600 5.348090 -0.000007 -0.000001 -68.416000 27.445500 -16.406500 24.328600 0.000019 0.000005 2.226480 5.849490 -20.880500 22.291600 -0.000001 0.000005 12.900900 5.550730 -8.739540 12.994500 -0.242716 -4.980390 87.932000 6.288320 -71.753900 -5.348130 -0.000001 -0.000004 -64.821700 29.761500 -15.042300 -24.328900 0.000322 -0.000009 1.016170 3.059020 -18.403900 -22.291500 -0.000108 -0.000004 20.863300 5.501300 -6.585630 -2.192480 -6.469440 -0.000000 -168.433000 -16.202300 -4.535160 39.081100 -0.000007 -0.000012 -0.166902 0.453990 20.185300 40.985400 -0.000006 -0.000013 -6.727040 3.081710 -61.656300 11.754300 -0.000000 0.000003 -0.000154 -0.001486 -16.634000 -2.192510 6.469440 -0.000001 175.192000 21.977700 177.635000 -39.081100 -0.002282 -0.040193 -0.034210 0.113674 18.273100 -40.985400 0.000008 0.000006 -2.941040 4.216850 -61.945500 -11.754300 -0.000006 -0.000006 -0.004983 -0.061299 -19.067200
0.000000 0.000000 0.000000 0.000000 0.000000 -0.000000 -1.302550 92.234000 -2.590000 87.491500 -0.216820 1.890070 15.735700 0.000005 -0.000001 85.724500 85.407200 -85.637300 8.984550 -0.406207 -0.000000 1.394660 -0.689324 0.182637 16.377300 -0.000001 -0.000001 0.218491 -1.425620 -0.677454 6.456720 -0.000001 -0.000000 -1.348780 -0.926778 5.951860 12.994200 -0.242716 4.980390 -89.369900 -1.974880 -72.299300 5.348090 -0.000007 -0.000001 -66.984000 23.663000 -16.578900 24.328600 0.000019 0.000005 2.222840 5.912890 -20.645500 22.291600 -0.000001 0.000005 13.633300 5.548480 -8.634440 12.994500 -0.242716 -4.980390 87.966400 6.129750 -71.606100 -5.348130 -0.000001 -0.000004 -63.893100 25.942100 -14.856000 -24.328900 0.000322 -0.000009 0.757477 2.243150 -18.689300 -22.291500 -0.000108 -0.000004 22.181800 5.494370 -6.308910 -2.192480 -6.469440 -0.000000 -168.481000 -16.233600 -4.644110 39.081100 -0.000007 -0.000012 -0.163752 0.445816 20.169000 40.985400 -0.000006 -0.000013 -6.711070 3.080450 -61.571200 11.754300 -0.000000 0.000003 -0.000124 -0.001239 -16.624900 -2.192510 6.469440 -0.000001 175.212000 21.951600 177.542000 -39.081100 -0.002282 -0.040193 -0.037189 0.122843 18.252600 -40.985400 0.000008 0.000006 -3.039210 4.179450 -61.872100 -11.754300 -0.000006 -0.000006 -0.004949 -0.060971 -19.053800
0.000000 0.000000 0.000000 0.000000 0.000000 -0.000000 -1.326050 92.243600 -2.683210 87.464900 -0.237701 1.903690 15.735700 0.000005 -0.000001 85.277000 85.439600 -85.189900 8.984550 -0.406207 -0.000000 1.324410 -0.755534 0.182806 16.377300 -0.000001 -0.000001 -0.323253 -1.380200 -0.694953 6.456720 -0.000001 -0.000000 -1.600410 -0.906081 6.082680 12.994200 -0.242716 4.980390 -89.322700 -2.110260 -72.201800 5.348090 -0.000007 -0.000001 -65.220100 18.817600 -17.040900 24.328600 0.000019 0.000005 2.334250 6.353870 -20.220400 22.291600 -0.000001 0.000005 14.761000 5.558150 -9.092050 12.994500 -0.242716 -4.980390 88.006600 5.962820 -71.476700 -5.348130 -0.000001 -0.000004 -62.201800 21.813900 -15.264800 -24.328900 0.000322 -0.000009 0.627438 1.850380 -18.764100 -22.291500 -0.000108 -0.000004 22.892100 5.489940 -6.134690 -2.192480 -6.469440 -0.000000 -168.435000 -16.252700 -4.673330 39.081100 -0.000007 -0.000012 -0.164775 0.449935 20.113900 40.985400 -0.000006 -0.000013 -6.721440 3.109340 -61.466600 11.754300 -0.000000 0.000003 -0.000153 -0.001474 -16.633600 -2.192510 6.469440 -0.000001 175.292000 21.934900 177.478000 -39.081100 -0.002282 -0.040193 -0.036561 0.121036 18.238700 -40.985400 0.000008 0.000006 -3.001110 4.142070 -61.801400 -11.754300 -0.000006 -0.000006 -0.004914 -0.060631 -19.040000
